<svg width="63" height="39" viewBox="0 0 63 39" fill="none" xmlns="http://www.w3.org/2000/svg">
<path d="M54.0087 35.4592L54.0087 19.5946C54.0087 19.5946 41.7705 21.155 31.2334 26.3802C20.6962 21.155 8.45805 19.5946 8.45805 19.5946L8.45805 35.4592C4.86693 36.263 1.96095 37.2324 2.41136e-09 38.3436C6.61524 36.263 18.121 34.8681 31.2097 34.8681C44.2985 34.8681 55.8043 36.2394 62.4195 38.3436C60.4822 37.2324 57.5998 36.263 54.0087 35.4592Z" fill="#0B7077"/>
<path d="M11.7894 17.8922L11.7894 20.1383C16.1365 20.9658 24.0748 22.81 31.2334 26.3801C22.7754 19.7364 11.7894 17.8922 11.7894 17.8922Z" fill="#0B7077"/>
<path d="M50.701 17.8922C50.701 17.8922 39.715 19.7364 31.257 26.3801C38.4156 22.8336 46.3539 20.9658 50.701 20.1383L50.701 17.8922Z" fill="#0B7077"/>
<path d="M31.257 18.1049C30.8081 19.0979 30.123 19.9727 29.3197 20.6584L31.2334 23.9921L33.1943 20.6584C32.3674 19.9727 31.7059 19.0979 31.257 18.1049Z" fill="#0B7077"/>
<path d="M25.4452 15.6225C26.721 15.6225 27.7841 14.5822 27.7841 13.2818C27.7841 12.0051 26.7446 10.9412 25.4452 10.9412C24.1694 10.9412 23.1062 11.9815 23.1062 13.2818C23.1062 14.5822 24.1457 15.6225 25.4452 15.6225ZM24.6655 11.6505C25.1617 11.6505 25.5633 12.0524 25.5633 12.5489C25.5633 13.0454 25.1617 13.4473 24.6655 13.4473C24.1694 13.4473 23.7677 13.0454 23.7677 12.5489C23.7677 12.0524 24.1694 11.6505 24.6655 11.6505Z" fill="#0B7077"/>
<path d="M34.7064 13.2818C34.7064 14.5586 35.746 15.6225 37.0218 15.6225C38.2975 15.6225 39.3607 14.5822 39.3607 13.2818C39.3607 12.0051 38.3212 10.9412 37.0218 10.9412C35.7696 10.9648 34.7064 12.0051 34.7064 13.2818ZM37.3053 12.5489C37.3053 13.0454 36.9036 13.4473 36.4075 13.4473C35.9113 13.4473 35.5097 13.0454 35.5097 12.5489C35.5097 12.0524 35.9113 11.6505 36.4075 11.6505C36.9036 11.6505 37.3053 12.0524 37.3053 12.5489Z" fill="#0B7077"/>
<path d="M20.9798 17.8685C22.1375 19.0034 23.7204 19.6891 25.4451 19.6891C27.9967 19.6891 30.2175 18.1759 31.257 16.0007C32.2729 18.1759 34.4938 19.6891 37.069 19.6891C38.8173 19.6891 40.3766 18.9798 41.5343 17.8685C42.0304 18.5778 42.4557 19.3344 42.8101 20.1146C44.2513 19.5709 45.5743 19.1689 46.732 18.8379C45.9759 17.2775 44.7946 15.8825 43.3062 14.7004C43.4007 14.2511 43.4716 13.7546 43.4716 13.2818C43.4716 12.336 43.259 11.4376 42.8809 10.6101C42.4321 9.28607 41.7469 8.05662 40.8728 6.96904L40.8255 0.656311L35.5806 3.1152C34.2103 2.59505 32.7455 2.33498 31.257 2.33498C29.7686 2.33498 28.3038 2.59505 26.9335 3.1152L21.6649 0.656311L21.6177 6.96904C20.7672 8.05662 20.082 9.26242 19.6331 10.5628C19.2551 11.3903 19.0188 12.3124 19.0188 13.2818C19.0188 13.7783 19.0661 14.2511 19.1842 14.7004C17.6958 15.8825 16.5381 17.2775 15.7821 18.8379C16.9161 19.1689 18.2628 19.5945 19.704 20.1146C20.0584 19.3344 20.4836 18.5778 20.9798 17.8685ZM42.1013 13.2818C42.1013 16.0717 39.8332 18.3414 37.0454 18.3414C34.2575 18.3414 31.9894 16.0717 31.9894 13.2818C31.9894 10.4919 34.2575 8.22213 37.0454 8.22213C39.8332 8.24577 42.1013 10.5155 42.1013 13.2818ZM31.2334 3.68264C34.4465 3.68264 37.3761 5.07758 39.3843 7.32369C38.6519 7.03997 37.8486 6.87447 37.0217 6.87447C34.4701 6.87447 32.2493 8.38763 31.2098 10.5628C30.1939 8.38763 27.973 6.87447 25.3978 6.87447C24.5709 6.87447 23.7676 7.03997 23.0589 7.32369C25.1143 5.07758 28.0203 3.68264 31.2334 3.68264ZM25.4451 8.24577C28.2329 8.24577 30.501 10.5155 30.501 13.3054C30.501 16.0953 28.2329 18.365 25.4451 18.365C22.6572 18.365 20.3891 16.0953 20.3891 13.3054C20.3891 10.5155 22.6572 8.24577 25.4451 8.24577Z" fill="#0B7077"/>
</svg>
