<svg width="30" height="30" viewBox="0 0 30 30" fill="none" xmlns="http://www.w3.org/2000/svg">
<g clip-path="url(#clip0_8_8179)">
<rect x="0.423218" y="0.723389" width="29.1892" height="29.1892" rx="14.5946" transform="rotate(-0.173721 0.423218 0.723389)" fill="#FF78B9"/>
<path d="M24.2227 34.9592C25.2083 32.8764 22.5382 29.5464 18.2587 27.521C13.9793 25.4957 9.71102 25.5422 8.72536 27.6251C7.73971 29.7077 10.4098 33.0379 14.6894 35.0632C18.9687 37.0884 23.237 37.0418 24.2227 34.9592Z" fill="black"/>
<path d="M24.7418 23.4416C23.4732 22.6567 23.411 22.6776 22.7015 21.4136C21.9919 20.1496 21.0975 19.5296 20.0592 19.3875L21.3744 28.7033C24.0751 29.4839 25.7315 28.1089 26.101 26.7586C26.4706 25.4083 26.0311 24.2264 24.7418 23.4416Z" fill="#3442D9"/>
<path d="M23.4793 24.67C23.1218 23.1558 22.1824 21.3944 21.0783 20.0693C20.6826 19.5906 20.4013 19.0279 20.2557 18.424C20.11 17.8203 20.1037 17.1912 20.2374 16.5847L20.6878 14.5076C21.0045 13.066 20.8287 11.5599 20.1889 10.2299C19.5489 8.89983 18.4816 7.82265 17.1576 7.17042C16.3978 6.7992 15.5715 6.58297 14.7271 6.53433C13.1383 6.42278 11.5685 6.93473 10.3509 7.96149C9.13335 8.98827 8.36375 10.4491 8.20541 12.0339C8.17177 12.3024 8.15868 12.5731 8.16635 12.8435L8.16906 13.7361L8.2219 17.4722C8.27203 19.1506 7.92131 20.8166 7.19879 22.3323C6.89881 22.9337 6.67096 23.5686 6.51955 24.2233L16.7023 34.986C21.5361 34.1618 24.5524 29.4824 23.4793 24.67Z" fill="#3442D9"/>
<path d="M16.7231 34.9858C21.5362 34.1617 24.5525 29.4823 23.4793 24.6699C23.1428 23.2387 22.2868 21.5808 21.2658 20.2969" stroke="black" stroke-miterlimit="10" stroke-linecap="round"/>
<path d="M20.2422 24.9912C21.1922 23.4108 21.5665 23.6172 23.2699 24.0687C24.6409 24.4174 26.2269 27.2148 24.1348 28.6326C22.0426 30.0504 17.7642 29.2123 20.2422 24.9912Z" fill="#3442D9"/>
<path d="M15.4962 20.3533C15.6871 20.2064 15.717 19.9255 15.5632 19.7254C15.4094 19.5256 15.1301 19.4826 14.9394 19.6293C14.7487 19.7763 14.7186 20.0572 14.8724 20.257C15.0262 20.4571 15.3055 20.5 15.4962 20.3533Z" fill="black"/>
<path d="M18.1112 20.5076C18.3019 20.3609 18.332 20.0798 18.1782 19.88C18.0244 19.6801 17.7451 19.637 17.5541 19.7839C17.3634 19.9306 17.3333 20.2117 17.4871 20.4116C17.6409 20.6114 17.9202 20.6546 18.1112 20.5076Z" fill="black"/>
<path d="M17.8406 20.1829C20.0671 22.0027 19.1577 23.3132 20.951 26.0061" stroke="white" stroke-miterlimit="10" stroke-linecap="round"/>
<path d="M15.3414 24.2795C16.7085 23.3206 17.1228 23.0495 17.6418 23.0687L18.9913 23.1891L18.6551 28.6699L15.2299 28.5765L15.3414 24.2795Z" fill="#FFC619"/>
<path d="M21.9794 22.8687C22.0051 22.7962 22.0134 22.7185 22.004 22.6422C21.9946 22.5658 21.9676 22.4926 21.9253 22.4284C21.8828 22.3642 21.8262 22.3106 21.7596 22.272C21.6929 22.2334 21.6183 22.2107 21.5415 22.2058L19.2572 21.8806C19.0915 21.8635 18.9248 21.9038 18.7853 21.995C18.6457 22.0861 18.5417 22.2224 18.4907 22.3811L17.2183 27.159C17.1928 27.2318 17.1843 27.3092 17.1937 27.3856C17.203 27.4619 17.23 27.5351 17.2724 27.5993C17.3149 27.6635 17.3715 27.7171 17.4383 27.7557C17.5048 27.7944 17.5794 27.817 17.6562 27.8219L19.9404 28.1471C20.1063 28.1642 20.2729 28.1239 20.4125 28.0328C20.5519 27.9416 20.6559 27.8054 20.7069 27.6466L21.9794 22.8687Z" fill="black"/>
<path d="M21.8741 22.3917L22.1241 22.6815L21.4393 22.7459L21.8741 22.3917Z" fill="black"/>
<path d="M23.0046 25.5432C22.7125 25.0666 22.4409 24.4655 21.6518 24.3434L21.551 25.34L23.0046 25.5432Z" fill="#FFC619"/>
<path d="M22.2085 23.1378C22.2301 23.0653 22.2354 22.9889 22.2242 22.914C22.213 22.8391 22.1856 22.7676 22.1439 22.7044C22.1022 22.6413 22.0472 22.5881 21.9827 22.5484C21.9183 22.5088 21.8457 22.4837 21.7706 22.475L19.4656 22.1498C19.3005 22.1364 19.1354 22.1784 18.9968 22.269C18.8581 22.3597 18.7532 22.4937 18.6991 22.6503L17.4267 27.4283C17.4051 27.5008 17.3997 27.5772 17.4109 27.6521C17.4222 27.727 17.4496 27.7985 17.4913 27.8617C17.533 27.9249 17.588 27.9782 17.6524 28.0177C17.7171 28.0574 17.7894 28.0825 17.8646 28.0912L20.1695 28.3955C20.3311 28.4216 20.4966 28.3868 20.6342 28.2984C20.7717 28.2098 20.872 28.0737 20.9153 27.9158L22.2085 23.1378Z" fill="white"/>
<path d="M21.5085 25.0289L22.4429 25.1713C22.6323 25.1917 22.8059 25.2856 22.9267 25.4326C23.0476 25.5798 23.1057 25.7686 23.0888 25.9581C23.0843 26.0567 23.0593 26.1533 23.0153 26.2417C22.9712 26.3298 22.9092 26.408 22.8332 26.4708C22.757 26.5337 22.6687 26.5798 22.5735 26.6063C22.4785 26.6329 22.3789 26.6392 22.2813 26.6248L21.596 26.5231C21.3832 26.4932 21.1861 26.3938 21.0353 26.2404C20.8848 26.0869 20.7891 25.8881 20.7632 25.6746C20.7577 25.5795 20.7742 25.4844 20.8113 25.3967C20.8484 25.309 20.9052 25.231 20.9771 25.1685C21.0491 25.1062 21.1345 25.0611 21.2266 25.037C21.3187 25.0128 21.4152 25.01 21.5085 25.0289Z" fill="#FFC619"/>
<path d="M21.2014 26.4204L21.8451 26.5222C21.9529 26.5356 22.0564 26.572 22.1485 26.6293C22.2406 26.6865 22.3191 26.7633 22.3786 26.8538C22.4382 26.9445 22.4773 27.0471 22.4932 27.1544C22.5091 27.2617 22.5013 27.3711 22.4707 27.4752C22.427 27.6426 22.3216 27.7874 22.1755 27.8802C22.0295 27.973 21.8538 28.0072 21.6835 27.9757L21.2889 27.9146C21.0736 27.8856 20.8736 27.787 20.7195 27.6339C20.5655 27.4807 20.4657 27.2814 20.4353 27.0662C20.429 26.9689 20.4457 26.8717 20.4839 26.7819C20.5222 26.6923 20.5809 26.6128 20.6554 26.5499C20.73 26.4872 20.8181 26.4428 20.913 26.4203C21.0078 26.3978 21.1066 26.3979 21.2014 26.4204Z" fill="#FFC619"/>
<path d="M19.1951 28.7928L16.9525 28.4882L17.0535 27.5746L19.2962 27.8999L19.1951 28.7928Z" fill="#FFC619"/>
<path d="M19.7237 25.1588L18.3116 24.9555C18.2444 24.9466 18.1812 24.9183 18.1294 24.8745C18.0777 24.8304 18.0398 24.7724 18.0203 24.7073L17.8946 24.334L17.7885 23.5664L17.0287 26.2671L19.3129 26.5922C19.5256 26.62 19.7413 26.5754 19.9255 26.4656C20.1097 26.3559 20.2516 26.1875 20.3282 25.9872C20.3526 25.8923 20.3556 25.7931 20.3373 25.6968C20.3187 25.6005 20.2792 25.5095 20.2215 25.4304C20.1637 25.3511 20.089 25.2857 20.0031 25.2389C19.9171 25.1918 19.8217 25.1645 19.7237 25.1588Z" fill="#FFC619"/>
<path d="M19.2713 26.5716L17.0287 26.2671L17.137 27.7612L18.8606 28.0051C19.0709 28.0358 19.2852 27.992 19.4667 27.8816C19.6482 27.7713 19.7855 27.6008 19.8551 27.4001C19.8832 27.3066 19.8898 27.208 19.8743 27.1115C19.8587 27.0151 19.8212 26.9236 19.7651 26.8437C19.7089 26.7639 19.6352 26.698 19.5495 26.6507C19.4641 26.6036 19.3689 26.5765 19.2713 26.5716Z" fill="#FFC619"/>
<path d="M35.1988 35.6771C35.2542 33.4352 33.4058 33.0879 32.1373 32.303C30.8687 31.5181 29.3692 29.8621 27.8091 28.746C26.2489 27.6298 24.8998 27.6547 22.2662 28.4722L25.2936 34.3164C26.9983 35.1831 27.3748 36.1367 28.292 37.4209C29.2092 38.705 30.4354 39.1995 31.6593 38.9674C32.306 40.0241 32.4313 40.2728 33.3643 39.9378C34.2974 39.6029 35.8312 38.8925 36.2426 37.6666C36.6541 36.4407 36.0515 36.235 35.1988 35.6771Z" fill="#66BCFF"/>
<path d="M25.1586 30.8711C24.8823 31.7631 24.7043 32.6823 24.6272 33.6127" stroke="black" stroke-width="2" stroke-miterlimit="10" stroke-linecap="round"/>
<path d="M26.416 41.661C24.5323 43.3687 22.9326 42.8962 22.1851 42.8154C21.4376 42.7346 21.519 42.1947 21.4553 41.7383C21.3917 41.2818 21.3481 40.597 21.3481 40.597C19.4588 40.4781 19.2266 39.1919 19.1816 38.0504C19.1367 36.9089 18.8456 36.7438 18.6978 35.9347C16.4191 35.5325 14.2639 34.6112 12.3987 33.2417C10.5334 31.8724 9.00885 30.0918 7.94257 28.0382L9.91012 26.6L14.3192 29.4511C17.2841 28.342 18.9222 27.7766 20.5201 27.668C22.1181 27.5593 23.6974 28.1565 24.223 30.3759C24.7487 32.5953 24.813 33.28 25.2936 34.3372C25.419 34.6066 25.6277 34.9796 25.8365 35.3734C26.4212 36.5547 27.0282 38.2135 25.8506 40.0229C25.9965 40.5827 26.1856 41.1305 26.416 41.661Z" fill="#8CD9FF"/>
<path d="M11.1726 32.2212C11.1059 30.7477 11.6632 29.7081 12.6798 29.539L10.1005 27.7617L8.23488 28.5769C8.71631 29.9039 9.94535 31.3531 11.1726 32.2212Z" fill="black"/>
<path d="M15.382 23.9889C14.7785 23.4718 14.322 23.5147 13.5964 23.8282C12.8263 23.1248 11.8297 23.0241 10.7929 23.3801C9.75615 23.7361 8.15934 24.2184 7.22604 24.4703C7.174 24.4899 7.11735 24.4941 7.06293 24.4824C7.00851 24.4705 6.95861 24.4435 6.91906 24.4044C6.87971 24.365 6.85237 24.3153 6.84037 24.261C6.82817 24.2066 6.83214 24.1499 6.85129 24.0978L7.52871 21.6049C5.31278 23.2722 4.59706 26.8238 5.30864 28.752C6.02022 30.6802 9.09214 30.6502 10.0661 30.1075C11.04 29.5649 11.3716 29.3978 12.4931 29.602C13.6146 29.8062 14.4868 29.9488 15.9571 28.8235L16.828 28.5303C17.1544 26.6404 16.8597 25.2713 15.382 23.9889Z" fill="#3442D9"/>
<path d="M15.3821 23.9888C14.7786 23.4717 14.3221 23.5146 13.5966 23.8281C12.8264 23.1247 11.8298 23.024 10.793 23.38C9.75627 23.736 8.15945 24.2182 7.22616 24.4702" stroke="black" stroke-miterlimit="10" stroke-linecap="round"/>
<path d="M13.5964 23.8282C14.2179 24.3064 14.7359 24.9055 15.1197 25.5891C15.5035 26.273 15.7449 27.0274 15.8295 27.8067" stroke="black" stroke-miterlimit="10" stroke-linecap="round"/>
<path d="M19.8839 23.1865C19.8932 23.1578 19.8962 23.1275 19.8926 23.0974C19.889 23.0675 19.8789 23.0387 19.8629 23.0132C19.847 22.9875 19.8258 22.9656 19.8006 22.9491C19.7754 22.9325 19.747 22.9216 19.7171 22.9171L19.5095 22.9178C19.4518 22.9053 19.3914 22.9158 19.3412 22.9469C19.2909 22.978 19.2547 23.0273 19.2402 23.0846L19.0554 23.7702C19.046 23.8005 19.0436 23.8325 19.0485 23.8638C19.0533 23.8951 19.0652 23.9248 19.0832 23.9509C19.1013 23.9768 19.1252 23.9983 19.1529 24.0138C19.1805 24.029 19.2115 24.0379 19.2431 24.0394L19.4506 24.0388C19.5052 24.0457 19.5604 24.0325 19.6062 24.0018C19.6518 23.9712 19.6848 23.9252 19.6992 23.872L19.8839 23.1865Z" fill="#29CC7A"/>
<path d="M16.5507 19.2112C16.7101 18.8859 16.9461 18.6042 17.2381 18.39C17.5304 18.1758 17.8701 18.0357 18.2282 17.9815C18.2698 17.9813 18.2904 17.9398 18.2696 17.9191C17.9967 16.9236 18.1196 16.3628 18.4702 15.6352C18.4737 15.6299 18.476 15.6239 18.4768 15.6177C18.4776 15.6114 18.477 15.605 18.4751 15.599C18.473 15.593 18.4697 15.5875 18.4651 15.583C18.4607 15.5785 18.4553 15.5751 18.4493 15.573C17.2854 15.0784 16.847 14.2494 16.7206 13.6271C16.6997 13.5857 16.6373 13.5651 16.6167 13.6067C16.1009 14.6461 15.3953 14.6897 14.7931 14.6085C14.7516 14.6086 14.731 14.6502 14.7518 14.6709C15.3573 15.8315 14.9239 16.6631 14.3237 17.2461C14.3206 17.2542 14.319 17.263 14.3195 17.2717C14.3199 17.2805 14.3222 17.289 14.3262 17.2968C14.3301 17.3047 14.3356 17.3116 14.3424 17.3171C14.3491 17.3226 14.357 17.3267 14.3655 17.329C15.5285 17.533 16.1535 18.2991 16.4468 19.1908C16.4677 19.2322 16.53 19.2528 16.5507 19.2112Z" fill="#FFC619"/>
<path d="M19.2714 26.5716L18.0878 26.4092" stroke="black" stroke-miterlimit="10" stroke-linecap="round"/>
<path d="M21.4299 26.5028L22.0945 26.6046" stroke="black" stroke-miterlimit="10" stroke-linecap="round"/>
<path d="M16.6789 13.5857C17.1943 12.4218 17.1503 11.6124 17.0036 11.1562" stroke="black" stroke-miterlimit="10" stroke-linecap="round"/>
<path d="M18.3456 15.6148C18.6695 15.6635 19.0003 15.6418 19.3151 15.5513C19.6302 15.4608 19.9219 15.3036 20.1706 15.0904" stroke="black" stroke-miterlimit="10" stroke-linecap="round"/>
<path d="M16.5507 19.2112C16.5528 19.3656 16.5323 19.5197 16.4898 19.668" stroke="black" stroke-miterlimit="10" stroke-linecap="round"/>
<path d="M14.4276 17.2666C13.6613 17.8086 12.4986 17.7291 11.6884 17.4825" stroke="black" stroke-miterlimit="10" stroke-linecap="round"/>
<path d="M14.7931 14.6085C14.5007 14.0074 13.9589 13.3241 13.4601 13.0973" stroke="black" stroke-miterlimit="10" stroke-linecap="round"/>
<path d="M18.2697 17.919C18.5378 18.0611 18.8246 18.165 19.1216 18.2278" stroke="black" stroke-miterlimit="10" stroke-linecap="round"/>
<path d="M16.0419 15.7049C16.3989 17.0738 16.8553 16.9894 17.0616 16.5736C17.2679 16.1579 17.4117 15.6385 17.7439 15.679C18.0761 15.7195 17.9949 16.301 17.603 17.1324C17.2111 17.9639 16.5682 18.1526 15.9641 17.428C15.36 16.7033 15.3371 15.9977 15.3148 15.4996C15.2925 15.0015 15.8111 14.8754 16.0419 15.7049Z" fill="#C40655"/>
<path d="M15.2247 20.0248C15.4825 22.8885 14.0337 24.2628 13.5857 27.1079" stroke="white" stroke-miterlimit="10" stroke-linecap="round"/>
<path d="M18.5318 35.956C18.1545 34.7324 17.9817 32.4912 18.9928 30.5163" stroke="black" stroke-width="2" stroke-miterlimit="10" stroke-linecap="round"/>
<path d="M8.03489 24.2394L6.50041 24.7422" stroke="black" stroke-miterlimit="10" stroke-linecap="round"/>
<path d="M23.2905 24.0064L24.3292 24.2938" stroke="black" stroke-miterlimit="10" stroke-linecap="round"/>
</g>
<defs>
<clipPath id="clip0_8_8179">
<rect x="0.423218" y="0.723389" width="29.1892" height="29.1892" rx="14.5946" transform="rotate(-0.173721 0.423218 0.723389)" fill="white"/>
</clipPath>
</defs>
</svg>
