<svg width="31" height="30" viewBox="0 0 31 30" fill="none" xmlns="http://www.w3.org/2000/svg">
<g clip-path="url(#clip0_8_8177)">
<rect x="0.74292" y="0.135712" width="29.1892" height="29.1892" rx="14.5946" transform="rotate(-0.173721 0.74292 0.135712)" fill="#3442D9"/>
<path d="M7.2533 11.5869C6.39372 8.76659 5.93298 7.41879 7.46646 6.58386C8.99993 5.74894 13.6719 6.29521 15.8529 6.80752C18.0339 7.31983 18.3469 7.85856 16.9212 10.0008L7.2533 11.5869Z" fill="#FFF4B3"/>
<path d="M6.33399 36.9754C5.97646 28.5907 6.16288 21.6158 6.42145 17.8996C5.02799 16.9905 4.38239 16.2867 4.11136 15.8932C4.05508 15.8174 4.02616 15.7247 4.02981 15.6302C4.03326 15.536 4.06869 15.4456 4.13054 15.3742C6.32238 12.6069 8.20393 10.1934 10.1724 9.06654C12.1409 7.93971 14.8384 7.64093 19.148 11.9038C19.1892 11.9584 19.2098 12.0258 19.2063 12.0941C19.2027 12.1627 19.1751 12.2275 19.1284 12.2775C18.7881 12.6172 18.4288 12.9372 18.0519 13.2355C18.9284 14.7896 20.2017 17.1521 20.2017 17.1521L21.1981 17.149C21.8365 17.1471 22.4498 17.3989 22.9027 17.8492C23.3557 18.2993 23.6112 18.9108 23.6131 19.5495C23.6397 21.4798 23.1901 23.806 22.3067 26.7976C26.3018 30.0236 25.347 36.897 25.347 36.897L6.33399 36.9754Z" fill="#29CC7A"/>
<path d="M22.3067 26.7976C22.4299 26.3613 22.5532 25.9666 22.6558 25.5511L19.5268 27.3042C19.5268 27.3042 14.5558 23.9774 6.22611 21.927C6.09252 25.7882 6.08762 31.0189 6.334 36.9754L25.3471 36.9177C25.3471 36.9177 26.3018 30.0235 22.3067 26.7976Z" fill="#8CD9FF"/>
<path d="M23.0977 27.5632C22.8549 27.2872 22.5903 27.0313 22.3067 26.7976C22.4299 26.3613 22.5532 25.9666 22.6557 25.5511L19.5268 27.3042C19.5268 27.3042 14.5558 23.9774 6.22608 21.927C6.20678 22.4044 6.18759 22.9234 6.18916 23.4423C12.5695 26.0591 16.008 30.5737 16.4217 36.9448L21.1335 36.9305C21.9527 33.2748 22.6072 30.0763 23.0977 27.5632Z" fill="#BAE8FF"/>
<path d="M8.73022 19.4908L8.81325 19.4906C8.85464 19.4489 8.89609 19.4281 8.91666 19.3657L10.7048 13.5276C10.7168 13.5031 10.7235 13.4763 10.7241 13.4489C10.7246 13.4217 10.7193 13.3945 10.7083 13.3697C10.6974 13.3446 10.6809 13.3222 10.6605 13.3042C10.6399 13.2862 10.6158 13.273 10.5894 13.2654C10.5633 13.2578 10.5356 13.256 10.5087 13.26C10.4817 13.2643 10.456 13.2743 10.4332 13.2895C10.4106 13.3048 10.3916 13.3247 10.3773 13.3482C10.3633 13.3715 10.3544 13.3977 10.3516 13.4249L8.62518 19.076C7.87095 18.757 7.14723 18.37 6.46297 17.9202L6.42145 17.9203C6.42183 18.0449 6.40151 18.1902 6.40189 18.3148C7.12043 18.774 7.87884 19.1677 8.66795 19.491L8.73022 19.4908Z" fill="black"/>
<path d="M16.4233 10.0854L8.99407 10.6476C17.3015 12.2 17.6551 12.4272 16.4233 10.0854Z" fill="black"/>
<path d="M14.5826 15.49C14.8691 15.3733 14.9191 14.8309 14.6941 14.2789C14.4691 13.727 14.0545 13.3741 13.7678 13.4908C13.4811 13.6077 13.4313 14.1499 13.6563 14.7019C13.8811 15.254 14.2959 15.6069 14.5826 15.49Z" fill="black"/>
<path d="M16.7258 16.6312C17.0938 15.931 17.0467 15.1818 16.6205 14.9579C16.1943 14.7338 15.5506 15.1199 15.1824 15.8199C14.8144 16.5201 14.8617 17.2693 15.2877 17.4934C15.7139 17.7174 16.3579 17.3314 16.7258 16.6312Z" stroke="white" stroke-miterlimit="10"/>
<path d="M19.7823 16.6261C20.1503 15.9261 20.1032 15.1769 19.677 14.9528C19.2508 14.7289 18.6071 15.1148 18.2391 15.815C17.8711 16.5152 17.9182 17.2644 18.3444 17.4883C18.7706 17.7123 19.4144 17.3263 19.7823 16.6261Z" stroke="white" stroke-miterlimit="10"/>
<path d="M17.6792 15.3803C17.8703 15.3025 17.8499 14.8092 17.6335 14.2783C17.4173 13.7476 17.087 13.3803 16.8958 13.4583C16.7049 13.5361 16.7253 14.0295 16.9415 14.5604C17.1579 15.0911 17.4883 15.4583 17.6792 15.3803Z" fill="black"/>
<path d="M19.6732 20.8068C18.0706 20.8168 16.5138 20.2715 15.268 19.2634C13.9779 18.2087 14.4964 18.0826 15.3059 18.0594C16.1153 18.0362 19.9973 18.1697 21.1186 18.3323C22.24 18.495 22.4543 20.7153 19.6732 20.8068Z" fill="#912869"/>
<path d="M19.6732 20.8068C18.0706 20.8168 16.5138 20.2715 15.268 19.2634C13.9779 18.2087 14.4964 18.0826 15.3059 18.0594C16.1153 18.0362 19.9973 18.1697 21.1186 18.3323C22.24 18.495 22.4543 20.7153 19.6732 20.8068Z" fill="#611B46"/>
<path d="M19.5972 23.1318L19.5118 22.3641C20.0981 22.3156 20.669 22.1516 21.1917 21.8816" stroke="black" stroke-linecap="round" stroke-linejoin="round"/>
<path d="M20.4408 20.7007C19.3167 19.6248 17.799 18.8198 14.9974 19.0152C17.4119 21.2288 19.9223 20.8476 20.4408 20.7007Z" fill="#EB459F"/>
<path d="M16.8561 15.896L18.1222 15.8922" stroke="white" stroke-miterlimit="10"/>
<path d="M14.9472 16.1508L9.58533 13.9876C9.4729 13.9444 9.35164 13.9292 9.23212 13.9428C9.11239 13.9567 8.99795 13.9992 8.8981 14.0667C8.79847 14.1343 8.71655 14.225 8.65958 14.3311C8.6024 14.4371 8.57184 14.5553 8.57033 14.6757C8.56827 14.8175 8.60896 14.9564 8.68716 15.0747C8.76514 15.1928 8.8771 15.2848 9.00823 15.3386L9.3616 15.5036" stroke="white" stroke-miterlimit="10" stroke-linecap="round"/>
<path d="M13.8181 13.4351C14.2393 13.4446 14.6597 13.3873 15.063 13.2653" stroke="black" stroke-miterlimit="10" stroke-linecap="round"/>
<path d="M16.9317 13.4257C17.1972 13.4317 17.4604 13.3741 17.6991 13.2573" stroke="black" stroke-miterlimit="10" stroke-linecap="round"/>
<path d="M7.95689 10.8582C15.3667 10.732 17.8757 9.8941 19.9906 9.11969C22.1054 8.34527 21.8961 7.74395 20.2772 7.81113C18.6584 7.87831 13.1228 10.0123 7.95689 10.8582Z" fill="#FFF4B3"/>
<path d="M7.95684 10.8583L10.4885 10.643L16.5666 9.42068L15.0468 7.93079L7.80273 7.95276L7.95684 10.8583Z" fill="#FFF4B3"/>
<path d="M20.2473 18.4803L18.7941 18.4017C18.9628 19.2729 19.3793 19.7283 19.7317 19.582C20.0841 19.4356 20.2063 18.6672 20.2473 18.4803Z" fill="white"/>
<path d="M15.7633 18.3071C15.9531 19.3028 16.3283 19.8206 16.6807 19.6535C17.0331 19.4864 17.1136 18.6558 17.1748 18.3235L15.7633 18.3071Z" fill="white"/>
<path d="M17.4147 8.44256C14.2181 9.30937 10.9775 10.0051 7.70679 10.5269" stroke="#FFC619" stroke-width="2" stroke-miterlimit="10" stroke-linecap="round"/>
</g>
<defs>
<clipPath id="clip0_8_8177">
<rect x="0.74292" y="0.135712" width="29.1892" height="29.1892" rx="14.5946" transform="rotate(-0.173721 0.74292 0.135712)" fill="white"/>
</clipPath>
</defs>
</svg>
