<svg width="30" height="30" viewBox="0 0 30 30" fill="none" xmlns="http://www.w3.org/2000/svg">
<g clip-path="url(#clip0_8_8178)">
<rect x="0.340576" y="0.173523" width="29.1892" height="29.1892" rx="14.5946" transform="rotate(-0.173721 0.340576 0.173523)" fill="#7196FF"/>
<path d="M11.3166 25.0908L10.6773 25.7285L15.3476 30.3313L15.9869 29.6935L11.3166 25.0908Z" fill="#2E3338"/>
<path d="M14.2278 25.0889L13.5885 25.7266L18.2587 30.3293L18.8981 29.6916L14.2278 25.0889Z" fill="#2E3338"/>
<path d="M19.471 24.274C20.6731 23.0692 21.4145 21.4869 21.5677 19.799C21.721 18.1111 21.2763 16.423 20.3105 15.025L17.2807 10.6356L13.7122 10.6464L13.7292 16.2569C13.7307 16.7443 13.5368 17.2122 13.1904 17.5579C12.8438 17.9035 12.373 18.0985 11.8814 18.1L6.14429 18.1174L6.14814 19.3881C6.1538 21.2564 6.9064 23.0461 8.24088 24.3649C9.57536 25.6838 11.383 26.4242 13.2672 26.4236L14.312 26.4204C16.2479 26.3984 18.0989 25.6284 19.471 24.274Z" fill="#FFD836"/>
<path d="M17.2744 8.58324C18.2208 8.58037 19.1296 8.9504 19.8008 9.61192C20.472 10.2735 20.8507 11.1723 20.8536 12.1107L20.8564 13.0295L13.7193 13.0511L13.7165 12.1128C13.7189 11.1778 14.0945 10.2816 14.7612 9.62029C15.4278 8.95892 16.3314 8.58608 17.2744 8.58324Z" fill="#FFD836"/>
<path d="M21.8973 11.7165C22.0696 11.8844 22.2058 12.0851 22.2979 12.3065C22.3901 12.528 22.4363 12.7656 22.4335 13.0051L19.0227 13.0154C18.896 13.0133 18.7725 12.9745 18.6678 12.9038C18.5629 12.833 18.4812 12.7335 18.4327 12.6173C18.3842 12.5012 18.3709 12.3735 18.3946 12.25C18.4183 12.1265 18.4778 12.0125 18.5659 11.9221L19.254 11.2358L19.251 10.2584C19.2505 10.1321 19.2993 10.0105 19.3872 9.9191C19.4752 9.82773 19.5954 9.77365 19.7226 9.76822C19.8526 9.77481 19.9771 9.82237 20.0779 9.90397L21.8973 11.7165Z" fill="#FF9A15"/>
<path d="M17.2744 8.58309L16.2294 8.58626C14.9433 8.58856 13.7085 8.08632 12.7947 7.18916L12.2803 6.62381L12.2813 6.97569C12.2848 8.1163 12.7451 9.2088 13.561 10.0129C14.3768 10.8169 15.4814 11.2667 16.6318 11.2632L17.2627 11.2613L17.2744 8.58309Z" fill="#FFD836"/>
<path d="M12.2123 10.2014L15.071 10.1927L15.0796 13.0272L12.2123 10.2014Z" fill="#FFD836"/>
<path d="M7.80844 20.8492C8.345 21.9768 9.29904 22.856 10.4724 23.3042C11.6458 23.7524 12.9482 23.7353 14.1091 23.2561C15.2699 22.777 16.2002 21.8728 16.7063 20.7315C17.2124 19.5901 17.2556 18.2993 16.8269 17.1272L7.80844 20.8492Z" fill="#FF9A15"/>
<path d="M2.9801 14.9992L5.21499 17.2992C5.50832 17.5846 5.74181 17.9248 5.90196 18.3C6.06225 18.6754 6.14593 19.0783 6.14825 19.4858L7.74521 19.481L7.74183 18.3668C7.73806 17.7441 7.52623 17.1403 7.13946 16.6498C6.75268 16.1593 6.21284 15.8098 5.60431 15.656L2.9801 14.9992Z" fill="#FFD836"/>
<path d="M7.19107 18.8181L7.01417 18.9945C6.9416 19.064 6.84999 19.1107 6.75077 19.1287C6.65154 19.1468 6.54913 19.1355 6.45645 19.0961C6.36365 19.0567 6.28475 18.991 6.22947 18.9074C6.1742 18.8237 6.14498 18.7258 6.14562 18.6257L6.13003 13.4845L7.17803 14.5174C7.74815 15.0896 8.06892 15.8607 8.07136 16.665C8.07379 17.4693 7.75771 18.2425 7.19107 18.8181Z" fill="#FFD836"/>
<path d="M17.4993 11.2606C17.7498 11.2599 17.9522 11.0579 17.9514 10.8096C17.9507 10.5613 17.7471 10.3606 17.4966 10.3614C17.2461 10.3621 17.0437 10.5641 17.0445 10.8124C17.0452 11.0607 17.2488 11.2614 17.4993 11.2606Z" fill="#202225"/>
</g>
<defs>
<clipPath id="clip0_8_8178">
<rect x="0.340576" y="0.173523" width="29.1892" height="29.1892" rx="14.5946" transform="rotate(-0.173721 0.340576 0.173523)" fill="white"/>
</clipPath>
</defs>
</svg>
