<svg width="30" height="30" viewBox="0 0 30 30" fill="none" xmlns="http://www.w3.org/2000/svg">
<g clip-path="url(#clip0_8_8176)">
<rect x="0.310425" y="0.088501" width="29.1892" height="29.1892" rx="14.5946" transform="rotate(-0.173721 0.310425 0.088501)" fill="#FFE75C"/>
<path d="M22.8047 29.6926C22.91 30.114 22.9179 30.554 22.8279 30.979C22.7381 31.4042 22.5525 31.803 22.2855 32.1459C22.0186 32.4886 21.6772 32.7663 21.2871 32.9576C20.897 33.149 20.4687 33.2491 20.0341 33.2504L14.0977 33.2684L11.321 34.8336L11.3207 34.7505C10.0546 34.7544 9.32704 34.3414 9.87338 29.6903C9.62033 28.3833 8.44235 23.2392 7.78725 19.4012C7.19543 15.8951 8.4992 14.6042 12.1047 12.5591C13.6268 7.98796 17.6127 8.24572 18.389 10.9833C19.1653 13.7208 21.733 25.3576 22.8047 29.6926Z" fill="#66BCFF"/>
<path d="M22.8048 29.6925C22.2583 27.4524 21.2909 23.304 20.3866 19.4252L15.7361 19.0865L12.153 21.6297L10.0858 24.4173L9.03156 25.8528C9.41059 27.6367 9.72614 29.0887 9.85257 29.711C9.30624 34.3622 10.034 34.7752 11.3001 34.7713L14.9696 33.2034L23.478 32.5757C23.2676 31.6423 23.0361 30.6674 22.8048 29.6925Z" fill="#EB459F"/>
<path d="M13.2849 27.3846C13.5419 25.8354 13.4022 24.5215 12.9723 24.4501C12.5426 24.3788 11.9858 25.5769 11.7286 27.1264C11.4713 28.6756 11.6113 29.9893 12.041 30.0606C12.4706 30.132 13.0276 28.9339 13.2849 27.3846Z" fill="black"/>
<path d="M10.5604 23.5441C10.7668 23.1699 10.9942 22.7956 11.2215 22.4628C13.5568 19.0723 15.754 18.1523 17.8712 18.1459L20.5073 18.1379C20.5467 18.1388 20.5852 18.1491 20.6199 18.1677C20.6544 18.1863 20.6842 18.213 20.7065 18.2453C20.7288 18.2776 20.7432 18.3147 20.7485 18.3537C20.7538 18.3927 20.7498 18.4324 20.7368 18.4693L20.3866 19.4252C16.3391 19.4375 14.9065 19.3173 11.5546 22.8561L10.0858 24.4173L10.5604 23.5441Z" fill="#D11583"/>
<path d="M11.555 22.9806C10.165 23.2339 9.06714 23.9638 8.44835 25.2526C8.27258 25.6101 8.01822 25.9231 7.70387 26.1681L3.97592 28.8986C3.55692 29.1979 3.2656 29.6436 3.1594 30.1475C3.0534 30.6514 3.14031 31.1767 3.40298 31.6195C3.58617 31.9303 3.84786 32.1873 4.16162 32.3648C4.47559 32.5424 4.8306 32.6343 5.19113 32.6311L6.74788 32.6264C9.98045 30.8108 11.4712 29.5816 12.2371 28.8735C13.0029 28.1655 13.8501 26.8967 13.7004 25.4442C13.5507 23.9917 13.1316 22.6853 11.555 22.9806Z" fill="white"/>
<path d="M12.6848 12.246C12.1841 11.4173 11.5165 10.3192 11.2659 9.80103C11.0152 9.28287 10.4137 9.40923 11.2717 11.7314C9.19368 10.9489 8.75867 11.2409 8.65577 11.5318C8.55287 11.8227 9.00996 11.9666 9.88325 12.4621C10.7565 12.9576 11.6924 13.5567 11.6924 13.5567L12.6848 12.246Z" fill="#66BCFF"/>
<path d="M14.8437 12.3017C15.1952 11.8647 15.3185 11.387 15.1104 11.2215C14.9024 11.0561 14.6741 11.1398 14.364 11.5559C14.2302 11.7251 14.0852 11.8851 13.9296 12.0346C13.5777 12.3678 13.6615 12.6166 13.828 12.7614C13.9945 12.9062 14.4921 12.7387 14.8437 12.3017Z" fill="black"/>
<path d="M18.3684 11.0041C18.3684 11.0041 15.895 9.89069 14.8343 9.20893C13.7736 8.52717 13.2309 7.51173 13.7075 7.24045C14.1841 6.96917 15.0995 7.60985 15.7455 8.43817C15.7203 6.96451 15.9684 6.65242 16.3627 6.63047C16.757 6.60852 16.8001 7.18956 16.8234 8.01976C16.8466 8.84997 16.9932 9.18163 17.6176 9.74017C17.9914 10.0747 18.2534 10.5158 18.3684 11.0041Z" fill="#3442D9"/>
<path d="M9.3189 17.9228C8.73771 17.9245 8.23804 17.4279 8.69205 16.5547C9.14605 15.6816 10.6377 14.8053 11.3632 14.471C12.0886 14.1366 12.422 14.4677 12.4435 14.7168C12.465 14.9658 12.3621 15.3397 11.8452 16.0055C11.3283 16.6713 10.3775 17.9196 9.3189 17.9228Z" fill="white"/>
<path d="M9.77507 17.8591L9.4226 17.9225L8.91928 16.2219L9.20893 15.9097L9.77507 17.8591Z" fill="#8CD9FF"/>
<path d="M11.0593 16.9419L10.7698 17.2334L10.182 15.1387L10.4927 14.9302L11.0593 16.9419Z" fill="#8CD9FF"/>
<path d="M12.2174 15.4855L11.9485 15.8599L11.529 14.4082L11.8817 14.3448L12.2174 15.4855Z" fill="#8CD9FF"/>
<path d="M11.7566 14.1584C12.1414 14.3407 12.537 14.4992 12.9414 14.6322" stroke="black" stroke-linecap="round" stroke-linejoin="round"/>
<path d="M21.0383 22.1631C20.6401 21.8493 20.1528 21.6691 19.6462 21.6484C18.5669 21.6517 17.9681 22.7121 17.7637 23.7298C17.7307 23.8931 17.643 24.0399 17.5148 24.1461C17.3866 24.2524 17.226 24.3112 17.0597 24.3132L16.9144 24.3136C16.8207 24.2967 16.7314 24.261 16.6519 24.2085C16.5723 24.1563 16.5042 24.0884 16.4516 24.009C16.3991 23.9297 16.3629 23.8406 16.3458 23.747C16.3285 23.6532 16.3305 23.5571 16.3514 23.4643C16.7398 21.4912 18.0229 20.2211 19.6419 20.2162C19.9097 20.2187 20.1688 20.3122 20.3769 20.4813C20.5847 20.6503 20.7291 20.885 20.7863 21.1468L21.0383 22.1631Z" fill="white"/>
<path d="M22.8047 29.6925C22.8512 29.878 22.8592 30.071 22.8287 30.2595C22.7981 30.4483 22.7297 30.6289 22.6273 30.7903C22.5248 30.9517 22.3907 31.0905 22.2331 31.1985C22.0755 31.3067 21.8974 31.3816 21.7101 31.4187L21.1913 31.4618C20.0082 31.4653 18.7812 30.7633 17.8226 29.5416C17.7653 29.4654 17.7233 29.3787 17.6994 29.2864C17.6755 29.1939 17.67 29.0978 17.6832 29.0034C17.6964 28.9089 17.7281 28.8179 17.7764 28.7357C17.8247 28.6534 17.8889 28.5816 17.9651 28.5241C18.04 28.4638 18.1267 28.4196 18.2194 28.394C18.3121 28.3686 18.4092 28.3623 18.5045 28.3755C18.5998 28.3889 18.6912 28.4214 18.7736 28.4716C18.8557 28.5216 18.9269 28.5878 18.9824 28.6663C19.6492 29.5153 20.4605 30.0317 21.1869 30.0295C21.9134 30.0273 22.3481 29.6109 22.6578 29.0703C22.7 29.2985 22.7627 29.5058 22.8047 29.6925Z" fill="#2331B5"/>
<path d="M21.396 23.7603C21.2495 23.7616 21.107 23.8083 20.9881 23.8942C20.8695 23.9801 20.7804 24.101 20.7332 24.2398L19.8686 26.5879C19.7931 26.8084 19.7955 27.0481 19.8754 27.267C19.9556 27.486 20.1083 27.6707 20.3081 27.7905C20.3986 27.8456 20.5004 27.88 20.6057 27.8904C20.7111 27.9011 20.8176 27.8877 20.9173 27.8515C21.0168 27.8153 21.1069 27.7571 21.181 27.6813C21.2551 27.6056 21.3111 27.5141 21.3448 27.4137L21.9009 25.8968C21.7535 25.2122 21.5851 24.507 21.396 23.7603Z" fill="#5865F2"/>
<path d="M20.3082 27.7904C20.1083 27.6706 19.9556 27.486 19.8754 27.267C19.7955 27.0481 19.7931 26.8083 19.8686 26.5879L20.1157 25.9437C20.1571 25.8312 20.2224 25.7291 20.3068 25.6442C20.3915 25.5594 20.4934 25.494 20.6056 25.4521C20.7179 25.4105 20.8379 25.3935 20.9574 25.4025C21.0768 25.4114 21.193 25.4462 21.2975 25.5042C21.4687 25.6035 21.5999 25.759 21.6686 25.9445C21.7372 26.1299 21.7393 26.3333 21.6743 26.5201L21.3449 27.4137C21.3111 27.514 21.2551 27.6055 21.1811 27.6813C21.107 27.7571 21.0169 27.8153 20.9173 27.8515C20.8176 27.8877 20.7112 27.9011 20.6057 27.8904C20.5004 27.8799 20.3986 27.8458 20.3082 27.7904Z" fill="#FFE75C"/>
</g>
<defs>
<clipPath id="clip0_8_8176">
<rect x="0.310425" y="0.088501" width="29.1892" height="29.1892" rx="14.5946" transform="rotate(-0.173721 0.310425 0.088501)" fill="white"/>
</clipPath>
</defs>
</svg>
