<svg width="28" height="28" viewBox="0 0 28 28" fill="none" xmlns="http://www.w3.org/2000/svg">
<g clip-path="url(#clip0_2_7239)">
<path d="M7.12499 0.25C6.58254 0.25 6.14282 0.68972 6.14282 1.23216V3.19643H8.10709V1.23216C8.10709 0.68972 7.66737 0.25 7.12499 0.25Z" fill="white"/>
<path d="M20.875 0.25C20.3325 0.25 19.8928 0.68972 19.8928 1.23216V3.19643H21.8571V1.23216C21.8571 0.68972 21.4174 0.25 20.875 0.25Z" fill="white"/>
<path d="M24.8036 3.19644H21.8571V7.12503C21.8571 7.66747 21.4174 8.10719 20.875 8.10719C20.3325 8.10719 19.8928 7.66747 19.8928 7.12503V3.19644H8.10712V7.12503C8.10712 7.66747 7.6674 8.10719 7.12496 8.10719C6.58252 8.10719 6.1428 7.66747 6.1428 7.12503V3.19644H3.19643C1.56916 3.19644 0.25 4.5156 0.25 6.14287V24.8036C0.25 26.4309 1.56916 27.75 3.19643 27.75H24.8036C26.4308 27.75 27.75 26.4309 27.75 24.8036V6.14287C27.75 4.5156 26.4308 3.19644 24.8036 3.19644ZM25.7857 24.8036C25.7857 25.346 25.346 25.7858 24.8035 25.7858H3.19643C2.65399 25.7858 2.21427 25.346 2.21427 24.8036V12.0357H25.7857V24.8036Z" fill="white"/>
<path d="M8.10708 14H6.14281C5.60036 14 5.16064 14.4397 5.16064 14.9821C5.16064 15.5246 5.60036 15.9643 6.14281 15.9643H8.10708C8.64952 15.9643 9.08924 15.5246 9.08924 14.9821C9.08924 14.4397 8.64952 14 8.10708 14Z" fill="white"/>
<path d="M14.9822 14H13.0179C12.4755 14 12.0358 14.4397 12.0358 14.9821C12.0358 15.5246 12.4755 15.9643 13.0179 15.9643H14.9822C15.5246 15.9643 15.9644 15.5246 15.9644 14.9821C15.9644 14.4397 15.5246 14 14.9822 14Z" fill="white"/>
<path d="M21.8572 14H19.8929C19.3505 14 18.9108 14.4397 18.9108 14.9821C18.9108 15.5246 19.3505 15.9643 19.8929 15.9643H21.8572C22.3996 15.9643 22.8394 15.5246 22.8394 14.9821C22.8394 14.4397 22.3996 14 21.8572 14Z" fill="white"/>
<path d="M8.10708 17.9286H6.14281C5.60036 17.9286 5.16064 18.3683 5.16064 18.9107C5.16064 19.4532 5.60036 19.8929 6.14281 19.8929H8.10708C8.64952 19.8929 9.08924 19.4532 9.08924 18.9107C9.08924 18.3683 8.64952 17.9286 8.10708 17.9286Z" fill="white"/>
<path d="M14.9822 17.9286H13.0179C12.4755 17.9286 12.0358 18.3683 12.0358 18.9107C12.0358 19.4532 12.4755 19.8929 13.0179 19.8929H14.9822C15.5246 19.8929 15.9644 19.4532 15.9644 18.9107C15.9644 18.3683 15.5246 17.9286 14.9822 17.9286Z" fill="white"/>
<path d="M21.8572 17.9286H19.8929C19.3505 17.9286 18.9108 18.3683 18.9108 18.9107C18.9108 19.4532 19.3505 19.8929 19.8929 19.8929H21.8572C22.3996 19.8929 22.8394 19.4532 22.8394 18.9107C22.8393 18.3683 22.3996 17.9286 21.8572 17.9286Z" fill="white"/>
<path d="M8.10708 21.8571H6.14281C5.60036 21.8571 5.16064 22.2968 5.16064 22.8393C5.16064 23.3817 5.60036 23.8214 6.14281 23.8214H8.10708C8.64952 23.8214 9.08924 23.3817 9.08924 22.8392C9.08924 22.2968 8.64952 21.8571 8.10708 21.8571Z" fill="white"/>
<path d="M14.9822 21.8571H13.0179C12.4755 21.8571 12.0358 22.2968 12.0358 22.8393C12.0358 23.3817 12.4755 23.8214 13.0179 23.8214H14.9822C15.5246 23.8214 15.9644 23.3817 15.9644 22.8393C15.9644 22.2968 15.5246 21.8571 14.9822 21.8571Z" fill="white"/>
<path d="M21.8572 21.8571H19.8929C19.3505 21.8571 18.9108 22.2968 18.9108 22.8393C18.9108 23.3817 19.3505 23.8214 19.8929 23.8214H21.8572C22.3996 23.8214 22.8394 23.3817 22.8394 22.8393C22.8394 22.2968 22.3996 21.8571 21.8572 21.8571Z" fill="white"/>
</g>
<defs>
<clipPath id="clip0_2_7239">
<rect width="27.5" height="27.5" fill="white" transform="translate(0.25 0.25)"/>
</clipPath>
</defs>
</svg>
