<svg width="24" height="25" viewBox="0 0 24 25" fill="none" xmlns="http://www.w3.org/2000/svg">
<path opacity="0.4" d="M14.4183 6.17677C13.9422 6.08883 13.505 6.39262 13.4144 6.8573C13.3238 7.32198 13.6285 7.77567 14.0916 7.86661C15.4859 8.13842 16.5624 9.21768 16.8353 10.6167V10.6177C16.913 11.0204 17.2675 11.3132 17.6759 11.3132C17.7306 11.3132 17.7854 11.3082 17.8412 11.2983C18.3043 11.2053 18.609 10.7526 18.5184 10.2869C18.1111 8.19738 16.5027 6.58349 14.4183 6.17677Z" fill="#0B7077"/>
<path opacity="0.4" d="M14.356 2.69494C14.1329 2.66296 13.9088 2.72892 13.7305 2.87082C13.5473 3.01472 13.4328 3.22258 13.4079 3.45542C13.3551 3.9261 13.6947 4.3518 14.1648 4.40477C17.4064 4.76652 19.926 7.29178 20.2905 10.5436C20.3393 10.9793 20.7048 11.308 21.141 11.308C21.1739 11.308 21.2058 11.306 21.2386 11.302C21.4667 11.277 21.6699 11.1641 21.8133 10.9842C21.9557 10.8044 22.0204 10.5805 21.9945 10.3517C21.5404 6.29447 18.4003 3.14563 14.356 2.69494Z" fill="#0B7077"/>
<path fill-rule="evenodd" clip-rule="evenodd" d="M11.0317 13.6594C15.0208 17.6474 15.9258 13.0337 18.4656 15.5718C20.9143 18.0198 22.3216 18.5102 19.2192 21.6117C18.8306 21.924 16.3616 25.6813 7.6846 17.0067C-0.993478 8.33101 2.76158 5.85946 3.07397 5.47096C6.18387 2.36086 6.66586 3.77639 9.11449 6.22434C11.6544 8.76351 7.04266 9.67143 11.0317 13.6594Z" fill="#0B7077"/>
</svg>
