<svg width="22" height="22" viewBox="0 0 22 22" fill="none" xmlns="http://www.w3.org/2000/svg">
<path d="M13.2352 7.76956C13.2669 7.8337 13.3285 7.87836 13.3993 7.8887L18.9745 8.70316L14.9403 12.6338C14.8891 12.6838 14.8657 12.7557 14.8778 12.8262L15.829 18.377L10.8427 15.7549C10.7953 15.7302 10.7411 15.724 10.6903 15.7364L10.6405 15.7549L5.6532 18.377L6.60535 12.8262C6.61745 12.7556 6.59415 12.6838 6.54285 12.6338L2.50769 8.70316L8.08484 7.8887C8.15551 7.87832 8.21628 7.8336 8.24792 7.76956L10.7411 2.7178L13.2352 7.76956Z" stroke="#161618" stroke-width="0.435043" stroke-linecap="round" stroke-linejoin="round"/>
<path d="M10.7417 15.9478L10.7417 2.22659L8.05318 7.67333L2.04089 8.55211L6.39132 12.7894L5.36462 18.7756L10.7417 15.9478Z" fill="#161618"/>
</svg>
