<svg width="1111" height="256" viewBox="0 0 1111 256" fill="none" xmlns="http://www.w3.org/2000/svg">
<g opacity="0.6">
<path fill-rule="evenodd" clip-rule="evenodd" d="M642.499 -566.171C729.162 -548.693 822.47 -542.827 879.843 -480.031C947.421 -406.065 993.741 -306.571 970.534 -207.13C946.575 -104.474 855.278 -29.9464 761.368 27.6125C665.458 86.3972 558.317 124.384 448.444 112.867C324.954 99.9237 186.021 67.0142 132.742 -38.2776C80.8367 -140.855 152.431 -262.485 203.84 -370.529C244.679 -456.359 300.487 -538.933 389.948 -578.832C471.249 -615.093 557.425 -583.328 642.499 -566.171Z" stroke="white"/>
<path fill-rule="evenodd" clip-rule="evenodd" d="M705.031 -606.789C817.854 -582.376 878.934 -473.23 924.435 -372.568C964.06 -284.907 967.275 -187.247 937.419 -92.6813C908.463 -0.967538 856.014 91.8108 764.804 133.041C679.619 171.548 593.368 111.439 501.788 104.24C380.516 94.7079 231.289 168.601 150.784 84.778C68.38 -1.02246 105.977 -146.571 151.918 -260.049C193.242 -362.123 286.892 -429.193 383.34 -489.655C483.773 -552.616 592.044 -631.238 705.031 -606.789Z" stroke="white"/>
<path fill-rule="evenodd" clip-rule="evenodd" d="M722.034 -582.878C831.868 -583.243 944.395 -520.004 982.864 -423.7C1019.19 -332.765 932.085 -240.503 896.704 -145.598C866.138 -63.6082 863.211 29.153 792.901 85.858C712.937 150.35 603.132 196.927 507.27 168.483C414.529 140.966 399.099 29.4211 345.483 -46.8965C285.374 -132.456 142.374 -197.092 179.211 -298.481C216.486 -401.076 381.471 -369.48 481.778 -422.033C570.677 -468.609 622.919 -582.548 722.034 -582.878Z" stroke="white"/>
<path fill-rule="evenodd" clip-rule="evenodd" d="M672.821 -597.179C777.015 -581.288 853.572 -496.806 894.188 -404.93C930.593 -322.578 889.439 -232.452 874.142 -141.774C855.442 -30.9218 893.484 108.065 796.392 174.807C698.725 241.943 574.962 165.267 461.602 141.807C347.04 118.098 199.31 135.959 142.483 39.4778C85.8234 -56.7206 160.757 -178.43 211.396 -282.997C251.4 -365.601 316.612 -428.024 394.6 -481.125C480.77 -539.798 571.811 -612.585 672.821 -597.179Z" stroke="white"/>
<path fill-rule="evenodd" clip-rule="evenodd" d="M649.533 -556.186C727.965 -529.61 821.24 -533.53 872.479 -471.78C929.416 -403.164 935.519 -310.77 927.752 -220.895C917.609 -103.52 919.877 31.1561 822.414 107.584C718.542 189.037 570.267 189.405 445.625 157.175C326.11 126.272 225.711 47.551 175.428 -59.7121C129.36 -157.985 161.334 -270.337 195.224 -376.977C227.754 -479.338 257.468 -603.944 361.417 -644.948C461.771 -684.534 550.784 -589.646 649.533 -556.186Z" stroke="white"/>
<path fill-rule="evenodd" clip-rule="evenodd" d="M630.104 -505.535C738.894 -486.49 893.595 -531.563 940.43 -437.126C987.773 -341.662 848.777 -248.736 808.398 -146.021C775.42 -62.1331 808.502 51.6322 729.076 100.503C649.484 149.476 557.291 79.8423 467.353 63.8234C371.263 46.709 245.113 82.1157 192.594 4.95071C139.838 -72.563 218.328 -173.551 242.464 -266.603C267.71 -363.936 245.458 -488.109 334.763 -543.155C424.311 -598.35 528.793 -523.27 630.104 -505.535Z" stroke="white"/>
<path fill-rule="evenodd" clip-rule="evenodd" d="M645.45 -540.362C724.047 -519.41 781.332 -467.092 831.868 -407.007C894.4 -332.662 971.863 -259.227 964.309 -161.263C955.617 -48.5281 898.644 76.2167 790.691 127.04C686.446 176.117 578.195 101.958 470.869 71.0423C376.108 43.7462 270.205 35.0664 211.408 -39.8253C147.137 -121.691 115.029 -233.872 152.549 -334.417C188.432 -430.578 294.043 -483.224 392.166 -524.222C474.098 -558.455 562.155 -562.567 645.45 -540.362Z" stroke="white"/>
<path fill-rule="evenodd" clip-rule="evenodd" d="M641.036 -555.033C733.06 -533.8 789.067 -455.279 837.075 -378.482C885.645 -300.788 926.184 -216.452 910.297 -124.312C892.705 -22.2783 847.627 91.9411 748.328 136.238C652.881 178.817 554.582 112.443 460.584 76.3033C387.553 48.2244 321.107 14.0872 274.547 -45.9205C221.366 -114.461 166.943 -192.205 185.011 -278.86C203.894 -369.422 283.695 -436.893 366.525 -487.055C450.481 -537.9 547.879 -576.527 641.036 -555.033Z" stroke="white"/>
</g>
</svg>
