<svg width="14" height="21" viewBox="0 0 14 21" fill="none" xmlns="http://www.w3.org/2000/svg">
<path fill-rule="evenodd" clip-rule="evenodd" d="M3.53162 1.62378C5.71648 0.354286 8.40203 0.376475 10.5664 1.68191C12.7095 3.01393 14.012 5.39119 13.9998 7.94846C13.95 10.4889 12.5533 12.877 10.8075 14.7231C9.79983 15.7934 8.67261 16.7398 7.44884 17.5431C7.32281 17.6159 7.18475 17.6647 7.04148 17.687C6.9036 17.6811 6.76932 17.6404 6.65075 17.5685C4.78243 16.3616 3.14334 14.821 1.81233 13.021C0.698589 11.5184 0.0658357 9.70302 1.16173e-06 7.82143C-0.00144468 5.25926 1.34677 2.89328 3.53162 1.62378ZM4.79427 8.88179C5.1618 9.78784 6.02929 10.3788 6.99171 10.3789C7.62221 10.3834 8.2283 10.1308 8.67492 9.67748C9.12154 9.22413 9.37159 8.60764 9.36936 7.96539C9.37272 6.98504 8.79557 6.09932 7.90737 5.72178C7.01918 5.34424 5.99515 5.54936 5.31343 6.24135C4.6317 6.93335 4.42675 7.97573 4.79427 8.88179Z" fill="#0B7077"/>
<ellipse opacity="0.4" cx="7" cy="19.687" rx="5" ry="1" fill="#0B7077"/>
</svg>
