<svg width="183" height="39" viewBox="0 0 183 39" fill="none" xmlns="http://www.w3.org/2000/svg">
<path d="M54.0087 35.4592L54.0087 19.5946C54.0087 19.5946 41.7705 21.155 31.2334 26.3802C20.6962 21.155 8.45805 19.5946 8.45805 19.5946L8.45805 35.4592C4.86693 36.263 1.96095 37.2324 2.41136e-09 38.3436C6.61524 36.263 18.121 34.8681 31.2097 34.8681C44.2985 34.8681 55.8043 36.2394 62.4195 38.3436C60.4822 37.2324 57.5998 36.263 54.0087 35.4592Z" fill="#0B7077"/>
<path d="M11.7894 17.8922L11.7894 20.1383C16.1365 20.9658 24.0748 22.81 31.2334 26.3801C22.7754 19.7364 11.7894 17.8922 11.7894 17.8922Z" fill="#0B7077"/>
<path d="M50.701 17.8922C50.701 17.8922 39.715 19.7364 31.257 26.3801C38.4156 22.8336 46.3539 20.9658 50.701 20.1383L50.701 17.8922Z" fill="#0B7077"/>
<path d="M31.257 18.1049C30.8081 19.0979 30.123 19.9727 29.3197 20.6584L31.2334 23.9921L33.1943 20.6584C32.3674 19.9727 31.7059 19.0979 31.257 18.1049Z" fill="#0B7077"/>
<path d="M25.4452 15.6225C26.721 15.6225 27.7841 14.5822 27.7841 13.2818C27.7841 12.0051 26.7446 10.9412 25.4452 10.9412C24.1694 10.9412 23.1062 11.9815 23.1062 13.2818C23.1062 14.5822 24.1457 15.6225 25.4452 15.6225ZM24.6655 11.6505C25.1617 11.6505 25.5633 12.0524 25.5633 12.5489C25.5633 13.0454 25.1617 13.4473 24.6655 13.4473C24.1694 13.4473 23.7677 13.0454 23.7677 12.5489C23.7677 12.0524 24.1694 11.6505 24.6655 11.6505Z" fill="#0B7077"/>
<path d="M34.7064 13.2818C34.7064 14.5586 35.746 15.6225 37.0218 15.6225C38.2975 15.6225 39.3607 14.5822 39.3607 13.2818C39.3607 12.0051 38.3212 10.9412 37.0218 10.9412C35.7696 10.9648 34.7064 12.0051 34.7064 13.2818ZM37.3053 12.5489C37.3053 13.0454 36.9036 13.4473 36.4075 13.4473C35.9113 13.4473 35.5097 13.0454 35.5097 12.5489C35.5097 12.0524 35.9113 11.6505 36.4075 11.6505C36.9036 11.6505 37.3053 12.0524 37.3053 12.5489Z" fill="#0B7077"/>
<path d="M20.9798 17.8685C22.1375 19.0034 23.7204 19.6891 25.4451 19.6891C27.9967 19.6891 30.2175 18.1759 31.257 16.0007C32.2729 18.1759 34.4938 19.6891 37.069 19.6891C38.8173 19.6891 40.3766 18.9798 41.5343 17.8685C42.0304 18.5778 42.4557 19.3344 42.8101 20.1146C44.2513 19.5709 45.5743 19.1689 46.732 18.8379C45.9759 17.2775 44.7946 15.8825 43.3062 14.7004C43.4007 14.2511 43.4716 13.7546 43.4716 13.2818C43.4716 12.336 43.259 11.4376 42.8809 10.6101C42.4321 9.28607 41.7469 8.05662 40.8728 6.96904L40.8255 0.656311L35.5806 3.1152C34.2103 2.59505 32.7455 2.33498 31.257 2.33498C29.7686 2.33498 28.3038 2.59505 26.9335 3.1152L21.6649 0.656311L21.6177 6.96904C20.7672 8.05662 20.082 9.26242 19.6331 10.5628C19.2551 11.3903 19.0188 12.3124 19.0188 13.2818C19.0188 13.7783 19.0661 14.2511 19.1842 14.7004C17.6958 15.8825 16.5381 17.2775 15.7821 18.8379C16.9161 19.1689 18.2628 19.5945 19.704 20.1146C20.0584 19.3344 20.4836 18.5778 20.9798 17.8685ZM42.1013 13.2818C42.1013 16.0717 39.8332 18.3414 37.0454 18.3414C34.2575 18.3414 31.9894 16.0717 31.9894 13.2818C31.9894 10.4919 34.2575 8.22213 37.0454 8.22213C39.8332 8.24577 42.1013 10.5155 42.1013 13.2818ZM31.2334 3.68264C34.4465 3.68264 37.3761 5.07758 39.3843 7.32369C38.6519 7.03997 37.8486 6.87447 37.0217 6.87447C34.4701 6.87447 32.2493 8.38763 31.2098 10.5628C30.1939 8.38763 27.973 6.87447 25.3978 6.87447C24.5709 6.87447 23.7676 7.03997 23.0589 7.32369C25.1143 5.07758 28.0203 3.68264 31.2334 3.68264ZM25.4451 8.24577C28.2329 8.24577 30.501 10.5155 30.501 13.3054C30.501 16.0953 28.2329 18.365 25.4451 18.365C22.6572 18.365 20.3891 16.0953 20.3891 13.3054C20.3891 10.5155 22.6572 8.24577 25.4451 8.24577Z" fill="#0B7077"/>
<path d="M93.2294 20.3799C93.2294 22.4799 92.4894 24.2799 91.0094 25.7799C89.5294 27.2599 87.7394 27.9999 85.6394 27.9999C83.5394 27.9999 81.7394 27.2599 80.2394 25.7799C78.7594 24.2799 78.0194 22.4799 78.0194 20.3799C78.0194 18.2799 78.7594 16.4899 80.2394 15.0099C81.7394 13.5299 83.5394 12.7899 85.6394 12.7899C87.7394 12.7899 89.5294 13.5299 91.0094 15.0099C92.4894 16.4899 93.2294 18.2799 93.2294 20.3799ZM88.1294 20.3799C88.1294 19.6799 87.8894 19.0899 87.4094 18.6099C86.9294 18.1299 86.3394 17.8899 85.6394 17.8899C84.9394 17.8899 84.3394 18.1399 83.8394 18.6399C83.3594 19.1199 83.1194 19.6999 83.1194 20.3799C83.1194 21.0599 83.3694 21.6499 83.8694 22.1499C84.3694 22.6499 84.9594 22.8999 85.6394 22.8999C86.3194 22.8999 86.8994 22.6599 87.3794 22.1799C87.8794 21.6799 88.1294 21.0799 88.1294 20.3799ZM109.756 25.4499C109.756 26.1499 109.506 26.7499 109.006 27.2499C108.506 27.7499 107.906 27.9999 107.206 27.9999C106.506 27.9999 105.906 27.7499 105.406 27.2499C104.906 26.7499 104.656 26.1499 104.656 25.4499V20.3799C104.656 19.6799 104.406 19.0899 103.906 18.6099C103.426 18.1099 102.846 17.8599 102.166 17.8599C101.486 17.8599 100.896 18.1099 100.396 18.6099C99.8957 19.0899 99.6457 19.6799 99.6457 20.3799V25.4499C99.6457 26.1499 99.3957 26.7499 98.8957 27.2499C98.3957 27.7499 97.7957 27.9999 97.0957 27.9999C96.3957 27.9999 95.7957 27.7499 95.2957 27.2499C94.7957 26.7499 94.5457 26.1499 94.5457 25.4499V20.3799C94.5457 18.2799 95.2857 16.4899 96.7657 15.0099C98.2657 13.5099 100.066 12.7599 102.166 12.7599C104.266 12.7599 106.056 13.5099 107.536 15.0099C109.016 16.4899 109.756 18.2799 109.756 20.3799V25.4499ZM116.316 25.4499C116.316 26.1499 116.066 26.7499 115.566 27.2499C115.066 27.7499 114.466 27.9999 113.766 27.9999C113.066 27.9999 112.466 27.7499 111.966 27.2499C111.466 26.7499 111.216 26.1499 111.216 25.4499V10.1799C111.216 9.47994 111.466 8.87994 111.966 8.37994C112.466 7.87994 113.066 7.62994 113.766 7.62994C114.466 7.62994 115.066 7.87994 115.566 8.37994C116.066 8.87994 116.316 9.47994 116.316 10.1799V25.4499ZM132.928 25.4499C132.928 26.1499 132.678 26.7499 132.178 27.2499C131.678 27.7499 131.078 27.9999 130.378 27.9999H125.368C123.268 27.9999 121.468 27.2599 119.968 25.7799C118.468 24.2799 117.718 22.4799 117.718 20.3799C117.718 18.2799 118.458 16.4899 119.938 15.0099C121.438 13.5099 123.238 12.7599 125.338 12.7599C127.118 12.7599 128.698 13.3099 130.078 14.4099C131.458 15.5099 132.348 16.9299 132.748 18.6699C132.808 18.7899 132.838 18.9799 132.838 19.2399C132.838 19.9399 132.588 20.5399 132.088 21.0399C131.588 21.5399 130.988 21.7899 130.288 21.7899C129.028 21.7899 128.198 21.1399 127.798 19.8399C127.418 18.5399 126.608 17.8899 125.368 17.8899C124.668 17.8899 124.068 18.1399 123.568 18.6399C123.068 19.1199 122.818 19.6999 122.818 20.3799C122.818 21.0599 123.068 21.6499 123.568 22.1499C124.068 22.6499 124.658 22.8999 125.338 22.8999H130.348C131.048 22.8999 131.648 23.1499 132.148 23.6499C132.668 24.1499 132.928 24.7499 132.928 25.4499ZM149.602 25.4499C149.602 26.1499 149.352 26.7499 148.852 27.2499C148.352 27.7499 147.752 27.9999 147.052 27.9999H141.982C139.902 27.9999 138.112 27.2599 136.612 25.7799C135.112 24.2799 134.362 22.4799 134.362 20.3799C134.362 18.2799 135.102 16.4899 136.582 15.0099C138.082 13.5299 139.872 12.7899 141.952 12.7899C144.052 12.7899 145.852 13.5299 147.352 15.0099C148.852 16.4899 149.602 18.2799 149.602 20.3799V25.4499ZM144.502 20.3799C144.502 19.6999 144.252 19.1199 143.752 18.6399C143.272 18.1399 142.682 17.8899 141.982 17.8899C141.282 17.8899 140.682 18.1399 140.182 18.6399C139.702 19.1199 139.462 19.6999 139.462 20.3799C139.462 21.0799 139.702 21.6799 140.182 22.1799C140.682 22.6599 141.272 22.8999 141.952 22.8999H144.472L144.502 20.3799ZM164.679 15.3099C164.679 16.0099 164.429 16.6099 163.929 17.1099C163.429 17.6099 162.829 17.8599 162.129 17.8599H158.379C157.699 17.8599 157.109 18.1099 156.609 18.6099C156.109 19.0899 155.859 19.6799 155.859 20.3799V25.4499C155.859 26.1499 155.609 26.7499 155.109 27.2499C154.609 27.7499 154.009 27.9999 153.309 27.9999C152.609 27.9999 151.999 27.7499 151.479 27.2499C150.979 26.7499 150.729 26.1499 150.729 25.4499V20.3799C150.729 18.2799 151.469 16.4899 152.949 15.0099C154.449 13.5099 156.249 12.7599 158.349 12.7599H162.099C162.799 12.7599 163.399 13.0099 163.899 13.5099C164.419 14.0099 164.679 14.6099 164.679 15.3099ZM180.976 25.4499C180.976 26.1499 180.726 26.7499 180.226 27.2499C179.726 27.7499 179.126 27.9999 178.426 27.9999C177.726 27.9999 177.126 27.7499 176.626 27.2499C176.126 26.7499 175.876 26.1499 175.876 25.4499V20.3799C175.876 19.6799 175.626 19.0899 175.126 18.6099C174.646 18.1099 174.066 17.8599 173.386 17.8599C172.706 17.8599 172.116 18.1099 171.616 18.6099C171.116 19.0899 170.866 19.6799 170.866 20.3799V25.4499C170.866 26.1499 170.616 26.7499 170.116 27.2499C169.616 27.7499 169.016 27.9999 168.316 27.9999C167.616 27.9999 167.016 27.7499 166.516 27.2499C166.016 26.7499 165.766 26.1499 165.766 25.4499V20.3799C165.766 18.2799 166.506 16.4899 167.986 15.0099C169.486 13.5099 171.286 12.7599 173.386 12.7599C175.486 12.7599 177.276 13.5099 178.756 15.0099C180.236 16.4899 180.976 18.2799 180.976 20.3799V25.4499Z" fill="#0B7077"/>
</svg>
