<svg width="20" height="19" viewBox="0 0 20 19" fill="none" xmlns="http://www.w3.org/2000/svg">
<path opacity="0.4" d="M20 13.627C20 16.417 17.76 18.677 14.97 18.687H14.96H5.05C2.27 18.687 0 16.437 0 13.647V13.637C0 13.637 0.006 9.21101 0.014 6.98501C0.015 6.56701 0.495 6.33301 0.822 6.59301C3.198 8.47801 7.447 11.915 7.5 11.96C8.21 12.529 9.11 12.85 10.03 12.85C10.95 12.85 11.85 12.529 12.56 11.949C12.613 11.914 16.767 8.58001 19.179 6.66401C19.507 6.40301 19.989 6.63701 19.99 7.05401C20 9.26301 20 13.627 20 13.627Z" fill="#0B7077"/>
<path d="M19.4761 3.36052C18.6101 1.72852 16.9061 0.686523 15.0301 0.686523H5.05013C3.17413 0.686523 1.47013 1.72852 0.604128 3.36052C0.410128 3.72552 0.502128 4.18052 0.825128 4.43852L8.25013 10.3775C8.77013 10.7975 9.40013 11.0065 10.0301 11.0065C10.0341 11.0065 10.0371 11.0065 10.0401 11.0065C10.0431 11.0065 10.0471 11.0065 10.0501 11.0065C10.6801 11.0065 11.3101 10.7975 11.8301 10.3775L19.2551 4.43852C19.5781 4.18052 19.6701 3.72552 19.4761 3.36052Z" fill="#0B7077"/>
</svg>
