<svg width="67" height="54" viewBox="0 0 67 54" fill="none" xmlns="http://www.w3.org/2000/svg">
<path d="M32.4346 10.3671C20.6915 17.1777 13.1194 26.1242 9.8005 36.7581C6.48165 47.392 13.602 51.8361 22.635 48.5933C31.6679 45.3504 45.7592 36.0526 53.1766 26.7806C60.5941 17.5086 58.8564 12.8045 56.3581 9.71412C53.8598 6.62378 45.2381 2.94164 32.4346 10.3671Z" fill="#FAB13D"/>
<path fill-rule="evenodd" clip-rule="evenodd" d="M8.48797 36.3682C11.9263 25.3514 19.7593 16.1513 31.7454 9.19986C44.9505 1.5414 54.3899 5.09779 57.4344 8.86387C58.8105 10.5661 60.0667 12.8368 59.8564 16.0075C59.6502 19.1166 58.0469 22.8721 54.2522 27.6156C50.4337 32.3888 44.9436 37.1182 39.2983 41.0532C33.6544 44.9871 27.7629 48.1913 23.0958 49.8668C18.3395 51.5743 13.7221 51.3877 10.7058 48.927C7.61744 46.4075 6.74146 41.9642 8.48797 36.3682ZM9.80047 36.7582C13.1193 26.1243 20.6914 17.1778 32.4346 10.3672C45.2381 2.9417 53.8598 6.62385 56.3581 9.71419C58.8563 12.8045 60.594 17.5086 53.1766 26.7806C45.7592 36.0526 31.6679 45.3505 22.6349 48.5933C13.602 51.8361 6.48161 47.392 9.80047 36.7582Z" fill="#B7690D"/>
<path d="M17.4515 25.5837C13.091 30.1114 10.8749 35.0587 10.7815 40.2156C10.688 45.3725 14.4532 46.4442 18.0684 43.85C21.6836 41.2559 21.3678 36.3644 23.4722 31.2918C25.5765 26.2192 28.6447 23.6874 28.0266 21.3808C27.5497 19.6009 22.2058 20.6472 17.4515 25.5837Z" fill="#FCC66F"/>
<path fill-rule="evenodd" clip-rule="evenodd" d="M16.7348 30.7627C17.4083 31.1021 17.6712 31.9183 17.3221 32.5855C15.9013 35.301 15.5434 37.4055 15.2674 39.0284C15.2338 39.2263 15.2013 39.417 15.1683 39.6008C15.0358 40.339 14.3229 40.8359 13.5759 40.7107C12.8289 40.5856 12.3308 39.8858 12.4633 39.1477C12.494 38.9765 12.525 38.7935 12.5579 38.5989C12.8368 36.9483 13.2563 34.4653 14.8831 31.3562C15.2322 30.6889 16.0613 30.4232 16.7348 30.7627Z" fill="#FFDFAD"/>
<path fill-rule="evenodd" clip-rule="evenodd" d="M17.8283 49.6156C27.4842 44.8661 39.5047 36.2463 46.3843 27.6466C54.6681 17.2916 52.7274 12.0381 49.9374 8.58679C49.2212 7.7009 48.0545 6.77145 46.4738 6.01943C51.519 5.99798 54.9337 7.95221 56.358 9.71407C58.8562 12.8044 60.594 17.5085 53.1765 26.7805C45.7591 36.0525 31.6678 45.3504 22.6348 48.5932C20.9474 49.199 19.3267 49.5365 17.8283 49.6156Z" fill="#EDA024"/>
<path d="M28.2498 33.9295C24.4641 29.7742 16.4125 29.2293 12.8599 29.4763C13.5661 27.1252 15.6555 24.7717 16.6119 23.8888C22.9367 25.7658 27.0058 31.3647 28.2498 33.9295Z" fill="#D08814"/>
<path d="M38.2971 26.5776C33.6366 20.8315 25.5618 17.5531 22.0092 17.8C23.691 15.4417 27.6453 13.366 28.6017 12.4831C35.7144 14.1277 37.0531 24.0128 38.2971 26.5776Z" fill="#A56112"/>
<path d="M47.2276 16.13C42.7283 10.1818 39.0518 9.66564 35.6585 8.63021C37.0261 7.57631 41.0348 6.66212 42.2471 6.17733C45.8115 9.03762 46.5799 11.9053 47.2276 16.13Z" fill="#9C5807"/>
<path fill-rule="evenodd" clip-rule="evenodd" d="M16.1095 24.0818C16.0922 23.708 16.3853 23.3888 16.7643 23.3689C18.3201 23.2872 20.5046 23.9659 22.7466 25.4758C25.0085 26.999 27.3838 29.4027 29.3199 32.8674C29.5025 33.1941 29.381 33.6071 29.0485 33.7898C28.716 33.9725 28.2985 33.8557 28.1159 33.5289C26.2788 30.2414 24.046 27.9978 21.9665 26.5973C19.8671 25.1835 17.977 24.6621 16.8268 24.7226C16.4479 24.7425 16.1267 24.4556 16.1095 24.0818Z" fill="#FFDFAC"/>
<path fill-rule="evenodd" clip-rule="evenodd" d="M28.9255 12.263C29.0543 11.91 29.4479 11.7246 29.8047 11.8489C31.2316 12.3463 33.1122 13.8414 34.8827 16.1454C36.671 18.4726 38.3986 21.69 39.4813 25.7304C39.578 26.0916 39.3592 26.464 38.9924 26.5623C38.6257 26.6606 38.2499 26.4474 38.1531 26.0862C37.1161 22.216 35.4672 19.1577 33.7859 16.9697C32.0866 14.7585 30.4042 13.499 29.3385 13.1275C28.9817 13.0031 28.7968 12.6161 28.9255 12.263Z" fill="#FFDFAC"/>
<path fill-rule="evenodd" clip-rule="evenodd" d="M42.2108 6.08652C42.3688 5.74503 42.7765 5.5925 43.1213 5.74583C44.5915 6.39957 45.8917 7.83168 46.8492 9.57541C47.8146 11.3336 48.4752 13.485 48.6131 15.6834C48.6365 16.0568 48.3486 16.3806 47.97 16.4066C47.5914 16.4325 47.2655 16.1509 47.2421 15.7774C47.1168 13.7806 46.514 11.8192 45.6404 10.2283C44.7588 8.62288 43.6444 7.4695 42.5491 6.98247C42.2043 6.82914 42.0528 6.42801 42.2108 6.08652Z" fill="#FFDFAC"/>
<path d="M49.3469 24.709C49.36 25.4403 48.9271 26.0442 48.3801 26.0579C47.833 26.0716 47.3789 25.4898 47.3658 24.7585C47.3527 24.0272 47.7855 23.4232 48.3326 23.4096C48.8796 23.3959 49.3338 23.9777 49.3469 24.709Z" fill="#D48A15"/>
<path d="M45.2121 27.6628C45.2227 28.2568 44.8711 28.7474 44.4267 28.7586C43.9823 28.7697 43.6134 28.2971 43.6028 27.703C43.5921 27.1089 43.9437 26.6183 44.3881 26.6072C44.8325 26.5961 45.2014 27.0687 45.2121 27.6628Z" fill="#D48A15"/>
<path d="M48.9506 28.4627C48.9613 29.0568 48.6096 29.5474 48.1653 29.5585C47.7209 29.5696 47.352 29.097 47.3413 28.5029C47.3307 27.9088 47.6823 27.4182 48.1267 27.4071C48.5711 27.396 48.94 27.8686 48.9506 28.4627Z" fill="#D48A15"/>
<path d="M46.1093 22.5494C46.12 23.1434 45.7683 23.634 45.3239 23.6452C44.8795 23.6563 44.5107 23.1837 44.5 22.5896C44.4893 21.9955 44.841 21.5049 45.2854 21.4938C45.7298 21.4827 46.0986 21.9553 46.1093 22.5494Z" fill="#D48A15"/>
<path d="M52.2079 22.4401C52.2186 23.0342 51.867 23.5248 51.4226 23.5359C50.9782 23.547 50.6093 23.0744 50.5986 22.4803C50.588 21.8863 50.9396 21.3957 51.384 21.3846C51.8284 21.3734 52.1973 21.846 52.2079 22.4401Z" fill="#D48A15"/>
<path d="M49.9774 20.5949C49.9894 21.2648 49.5929 21.8181 49.0918 21.8306C48.5906 21.8431 48.1746 21.3102 48.1626 20.6403C48.1506 19.9703 48.5471 19.4171 49.0483 19.4046C49.5494 19.392 49.9654 19.925 49.9774 20.5949Z" fill="#D48A15"/>
<path d="M55.1952 19.5858C55.2072 20.2557 54.8107 20.8089 54.3095 20.8215C53.8084 20.834 53.3924 20.3011 53.3804 19.6311C53.3684 18.9612 53.7649 18.4079 54.266 18.3954C54.7672 18.3829 55.1832 18.9158 55.1952 19.5858Z" fill="#D48A15"/>
<path d="M53.2133 17.2382C53.2253 17.9082 52.8288 18.4614 52.3276 18.4739C51.8265 18.4865 51.4105 17.9535 51.3985 17.2836C51.3864 16.6136 51.783 16.0604 52.2841 16.0479C52.7852 16.0353 53.2012 16.5683 53.2133 17.2382Z" fill="#D48A15"/>
<path d="M57.5167 15.6281C57.5287 16.2981 57.1322 16.8513 56.6311 16.8638C56.1299 16.8764 55.7139 16.3434 55.7019 15.6735C55.6899 15.0035 56.0864 14.4503 56.5876 14.4378C57.0887 14.4252 57.5047 14.9582 57.5167 15.6281Z" fill="#D48A15"/>
<path d="M54.5017 22.7162C54.5096 23.1546 54.2501 23.5167 53.9221 23.5249C53.5941 23.5331 53.3219 23.1843 53.314 22.7459C53.3062 22.3074 53.5657 21.9454 53.8936 21.9372C54.2216 21.929 54.4938 22.2778 54.5017 22.7162Z" fill="#D48A15"/>
<path d="M51.7266 26.2153C51.7344 26.6538 51.4749 27.0158 51.147 27.024C50.819 27.0322 50.5468 26.6834 50.5389 26.245C50.531 25.8066 50.7905 25.4445 51.1185 25.4363C51.4465 25.4281 51.7187 25.7769 51.7266 26.2153Z" fill="#D48A15"/>
<path d="M43.5579 33.7827C43.5657 34.2211 43.3062 34.5832 42.9783 34.5914C42.6503 34.5996 42.3781 34.2508 42.3702 33.8124C42.3623 33.374 42.6218 33.0119 42.9498 33.0037C43.2778 32.9955 43.55 33.3443 43.5579 33.7827Z" fill="#D48A15"/>
<path d="M46.5068 30.3427C46.5147 30.7811 46.2552 31.1431 45.9272 31.1513C45.5993 31.1595 45.327 30.8108 45.3192 30.3723C45.3113 29.9339 45.5708 29.5718 45.8988 29.5636C46.2267 29.5555 46.499 29.9042 46.5068 30.3427Z" fill="#D48A15"/>
<path d="M43.703 30.5567C43.7094 30.9132 43.4983 31.2077 43.2316 31.2143C42.9649 31.221 42.7436 30.9374 42.7372 30.5809C42.7308 30.2243 42.9418 29.9299 43.2085 29.9232C43.4752 29.9166 43.6966 30.2002 43.703 30.5567Z" fill="#D48A15"/>
<path d="M43.5156 25.1228C43.5235 25.5612 43.264 25.9233 42.936 25.9315C42.6081 25.9397 42.3358 25.5909 42.328 25.1525C42.3201 24.7141 42.5796 24.352 42.9076 24.3438C43.2355 24.3356 43.5078 24.6844 43.5156 25.1228Z" fill="#D48A15"/>
<path d="M47.543 19.4673C47.5508 19.9057 47.2913 20.2678 46.9634 20.276C46.6354 20.2842 46.3632 19.9354 46.3553 19.497C46.3474 19.0585 46.6069 18.6965 46.9349 18.6883C47.2629 18.6801 47.5351 19.0289 47.543 19.4673Z" fill="#D48A15"/>
<path d="M50.2253 15.833C50.2332 16.2714 49.9737 16.6335 49.6457 16.6417C49.3178 16.6499 49.0455 16.3011 49.0377 15.8627C49.0298 15.4243 49.2893 15.0622 49.6173 15.054C49.9452 15.0458 50.2175 15.3946 50.2253 15.833Z" fill="#D48A15"/>
<path d="M53.8447 14.1545C53.8526 14.593 53.5931 14.955 53.2651 14.9632C52.9372 14.9714 52.6649 14.6227 52.6571 14.1842C52.6492 13.7458 52.9087 13.3837 53.2367 13.3755C53.5646 13.3673 53.8369 13.7161 53.8447 14.1545Z" fill="#D48A15"/>
<path d="M56.1631 13.2448C56.1709 13.6832 55.9114 14.0452 55.5835 14.0534C55.2555 14.0616 54.9833 13.7129 54.9754 13.2744C54.9676 12.836 55.227 12.4739 55.555 12.4657C55.883 12.4575 56.1552 12.8063 56.1631 13.2448Z" fill="#D48A15"/>
</svg>
