<svg width="20" height="21" viewBox="0 0 20 21" fill="none" xmlns="http://www.w3.org/2000/svg">
<path opacity="0.4" d="M19.9998 10.687C19.9998 16.211 15.5228 20.687 9.99976 20.687C4.47676 20.687 -0.000244141 16.211 -0.000244141 10.687C-0.000244141 5.16501 4.47676 0.687012 9.99976 0.687012C15.5228 0.687012 19.9998 5.16501 19.9998 10.687Z" fill="#0B7077"/>
<path d="M13.5734 14.5013C13.4424 14.5013 13.3104 14.4673 13.1894 14.3963L9.26344 12.0543C9.03744 11.9183 8.89844 11.6733 8.89844 11.4093V6.3623C8.89844 5.9483 9.23444 5.6123 9.64844 5.6123C10.0624 5.6123 10.3984 5.9483 10.3984 6.3623V10.9833L13.9584 13.1063C14.3134 13.3193 14.4304 13.7793 14.2184 14.1353C14.0774 14.3703 13.8284 14.5013 13.5734 14.5013Z" fill="#0B7077"/>
</svg>
